HIERARCHY
ROOT Hips
{
	OFFSET 0.000000 0.000000 0.000000 
	CHANNELS 6 Xposition Yposition Zposition Yrotation Zrotation Xrotation 
	JOINT Lumbar
	{
		OFFSET 0.000000 0.000000 0.000000 
		CHANNELS 3 Zrotation Xrotation Yrotation
		JOINT Neck
		{
			OFFSET 0.000000 0.445665 0.000000 
			CHANNELS 3 Zrotation Xrotation Yrotation
			End Site
			{
				OFFSET 0.000000 0.227535 0.000000 
			}
		}
		JOINT RightShoulder
		{
			OFFSET 0.019635 0.377685 0.194865 
			CHANNELS 3 Zrotation Xrotation Yrotation
			JOINT RightElbow
			{
				OFFSET 0.000000 -0.243375 0.000000 
				CHANNELS 2 Zrotation Yrotation
				JOINT RightWrist
				{
					OFFSET 0.000000 -0.264825 0.000000 
					CHANNELS 2 Zrotation Xrotation
					End Site
					{
						OFFSET 0.006600 -0.176220 0.000990 
					}
				}
			}
		}
		JOINT LeftShoulder
		{
			OFFSET 0.019635 0.377685 -0.194865 
			CHANNELS 3 Zrotation Xrotation Yrotation
			JOINT LeftElbow
			{
				OFFSET 0.000000 -0.243375 0.000000 
				CHANNELS 2 Zrotation Yrotation
				JOINT LeftWrist
				{
					OFFSET 0.000000 -0.264825 0.000000 
					CHANNELS 2 Zrotation Xrotation
					End Site
					{
						OFFSET 0.006600 -0.176220 -0.000990 
					}
				}
			}
		}
	}
	JOINT RightHip
	{
		OFFSET 0.052140 -0.069960 0.075570 
		CHANNELS 3 Zrotation Xrotation Yrotation
		JOINT RightKnee
		{
			OFFSET 0.000000 -0.402270 0.000000 
			CHANNELS 1 Zrotation
			JOINT RightAnkle
			{
				OFFSET 0.000000 -0.404085 0.000000 
				CHANNELS 3 Zrotation Xrotation Yrotation
				End Site
				{
					OFFSET 0.204105 -0.089430 0.008415 
				}
			}
		}
	}
	JOINT LeftHip
	{
		OFFSET 0.052140 -0.069960 -0.075570 
		CHANNELS 3 Zrotation Xrotation Yrotation
		JOINT LeftKnee
		{
			OFFSET 0.000000 -0.402270 0.000000 
			CHANNELS 1 Zrotation
			JOINT LeftAnkle
			{
				OFFSET 0.000000 -0.404085 0.000000 
				CHANNELS 3 Zrotation Xrotation Yrotation
				End Site
				{
					OFFSET 0.204105 -0.089430 -0.008415 
				}
			}
		}
	}
}
MOTION
Frames: 19
Frame Time: 0.02
-2.01431 -0.12563 -1.1261 149.07377 -68.64825 25.16156 -25.23978 12.68659 1.25144 -37.29142 -4.47131 -0.83079 108.04045 3.04117 29.5441 11.41366 74.89693 -12.18259 -1.2774 86.30489 23.39398 -55.3401 37.9223 -81.63674 -10.82814 2.11383 97.21485 -19.86102 17.76972 -63.71628 -6.20287 -4.05086 -2.74026 86.28712 -1.19946 21.84169 -61.83585 -6.81905 5.1747 3.40153
-2.01467 -0.12487 -1.12666 148.79793 -68.66508 24.69298 -25.55779 12.47536 0.82983 -39.92564 -5.06316 -0.83079 107.48015 1.88008 31.69591 12.32781 74.83428 -12.3794 -1.0675 86.25027 23.63512 -54.88274 38.35722 -81.52352 -11.04879 1.73494 96.95645 -19.96065 17.12857 -63.44996 -6.18363 -4.01678 -2.72004 86.15936 -1.15083 21.50744 -61.63523 -6.8403 5.18711 3.40946
-2.0151 -0.12382 -1.12735 148.55011 -68.66659 24.25718 -26.0225 12.25586 0.54805 -42.38264 -5.56169 -0.83079 106.71486 0.63463 34.59127 13.54799 74.80627 -12.5355 -0.79602 86.47561 23.65953 -54.58415 38.69714 -81.3932 -11.31886 1.3559 96.62652 -20.01539 16.585 -63.11597 -6.17962 -3.99459 -2.70753 85.99436 -1.15821 21.12254 -61.35415 -6.86668 5.20142 3.41846
-2.0155 -0.12292 -1.12797 148.29481 -68.67693 23.80986 -26.41416 12.04511 0.20677 -44.87044 -6.09352 -0.83079 106.03689 -0.55013 37.06407 14.60962 74.75047 -12.7019 -0.56504 86.57342 23.78032 -54.21797 39.07312 -81.27303 -11.56031 0.98875 96.33358 -20.08735 16.00542 -62.81849 -6.16869 -3.96773 -2.69197 85.85008 -1.13355 20.77264 -61.11703 -6.88898 5.21375 3.42625
-2.01588 -0.12195 -1.12864 148.01194 -68.681 23.34009 -26.83203 11.81381 -0.15903 -47.58602 -6.66981 -0.83079 105.35689 -1.84051 39.90987 15.78412 74.76287 -12.88134 -0.27905 86.67362 23.91794 -53.82695 39.47927 -81.14385 -11.82829 0.56889 96.02221 -20.17574 15.37716 -62.49636 -6.15694 -3.93675 -2.67384 85.69054 -1.13305 20.3691 -60.85002 -6.91853 5.23074 3.43706
-2.01633 -0.12106 -1.12923 147.79476 -68.69381 22.928 -27.2301 11.62312 -0.43767 -49.77744 -7.1291 -0.83079 104.64298 -2.9248 42.14913 16.78536 74.63851 -13.0319 -0.09299 86.83493 23.96635 -53.5275 39.79949 -81.02878 -12.05225 0.25892 95.73242 -20.21816 14.879 -62.2101 -6.15082 -3.91756 -2.66314 85.55397 -1.09743 20.06583 -60.62622 -6.93434 5.23857 3.44191
-2.01696 -0.12045 -1.12954 147.75791 -68.73515 22.66762 -27.54159 11.54701 -0.50994 -50.57367 -7.2871 -0.83079 103.88214 -3.44133 42.53369 17.2216 74.08172 -13.11694 -0.20884 87.09646 23.81691 -53.44316 39.91127 -80.95931 -12.14624 0.26445 95.51507 -20.14368 14.71241 -62.03359 -6.15667 -3.92808 -2.67121 85.4859 -0.94463 20.05959 -60.53443 -6.90978 5.21963 3.42934
-2.01767 -0.11994 -1.12975 147.78602 -68.78548 22.46529 -27.82744 11.51197 -0.49817 -50.84413 -7.32989 -0.83079 103.09885 -3.74214 42.27968 17.47052 73.39149 -13.17665 -0.42603 87.40986 23.58485 -53.44647 39.9387 -80.90399 -12.19361 0.37911 95.32256 -20.02418 14.67607 -61.89648 -6.16777 -3.95019 -2.68657 85.44274 -0.7561 20.15534 -60.48985 -6.87141 5.19156 3.41084
-2.01835 -0.1194 -1.13 147.78136 -68.83105 22.23719 -28.12266 11.45769 -0.52386 -51.34746 -7.42523 -0.83079 102.33163 -4.12595 42.31427 17.80841 72.78984 -13.24833 -0.5898 87.6991 23.39238 -53.40929 40.0013 -80.84055 -12.25981 0.4362 95.12167 -19.92552 14.58437 -61.74528 -6.1765 -3.96709 -2.6986 85.39081 -0.58877 20.19946 -60.42809 -6.84018 5.16836 3.39553
-2.01901 -0.11877 -1.1303 147.79101 -68.87894 22.0073 -28.4329 11.40527 -0.54824 -51.8718 -7.5166 -0.83079 101.53122 -4.57626 42.38141 18.14157 72.07256 -13.31633 -0.78146 87.99982 23.18382 -53.37881 40.07457 -80.78393 -12.33733 0.52596 94.90631 -19.82392 14.47927 -61.57607 -6.18563 -3.98411 -2.71094 85.32723 -0.40283 20.26289 -60.34586 -6.8056 5.14229 3.37824
-2.01972 -0.11836 -1.13046 147.78626 -68.92433 21.79479 -28.7035 11.35918 -0.55675 -52.22819 -7.59011 -0.83079 100.79836 -4.83582 42.21991 18.43571 71.56301 -13.38652 -0.94117 88.28628 22.99203 -53.35503 40.10604 -80.71638 -12.38 0.57478 94.72757 -19.71813 14.43228 -61.45405 -6.19504 -4.00351 -2.7243 85.29383 -0.24587 20.31243 -60.31806 -6.77452 5.11987 3.36356
-2.02054 -0.11856 -1.13027 147.72301 -68.96074 21.61361 -28.87329 11.31764 -0.54682 -52.26064 -7.64395 -0.83079 100.25035 -4.61866 41.57773 18.66751 71.67135 -13.47065 -0.97846 88.51053 22.86706 -53.3101 40.05005 -80.61882 -12.33397 0.47582 94.64744 -19.61342 14.50943 -61.4577 -6.20356 -4.02654 -2.73844 85.34216 -0.18272 20.28622 -60.43349 -6.75775 5.11088 3.35825
-2.0214 -0.11897 -1.12994 147.6432 -68.99441 21.44794 -29.0029 11.28157 -0.52414 -52.1395 -7.68511 -0.83079 99.77295 -4.21663 40.72736 18.86491 71.99426 -13.55788 -0.98277 88.71897 22.76309 -53.27044 39.95419 -80.50988 -12.2552 0.33477 94.60306 -19.506 14.64064 -61.50689 -6.21219 -4.05153 -2.75336 85.41949 -0.14889 20.24461 -60.60171 -6.74478 5.10571 3.35566
-2.02225 -0.11927 -1.12968 147.57299 -69.02929 21.27697 -29.14864 11.24501 -0.50415 -52.084 -7.7301 -0.83079 99.26983 -3.90108 39.9688 19.07674 72.20688 -13.64275 -1.00789 88.94006 22.65007 -53.24083 39.87206 -80.40299 -12.19339 0.21654 94.54029 -19.39892 14.74994 -61.53223 -6.22095 -4.07562 -2.76805 85.48059 -0.0979 20.21913 -60.74313 -6.72919 5.09801 3.35133
-2.02309 -0.11963 -1.12941 147.49726 -69.06449 21.10182 -29.30259 11.20168 -0.49205 -52.03357 -7.77446 -0.83079 98.7414 -3.56927 39.18945 19.28745 72.45519 -13.73042 -1.00949 89.14063 22.53088 -53.16617 39.80475 -80.30693 -12.12019 0.08095 94.48723 -19.29385 14.85386 -61.57209 -6.22911 -4.10014 -2.78248 85.55481 -0.06136 20.16068 -60.8977 -6.71671 5.0932 3.34882
-2.02396 -0.11992 -1.12912 147.42704 -69.09844 20.93684 -29.43017 11.17292 -0.46435 -51.93554 -7.82455 -0.83079 98.27962 -3.2282 38.42576 19.49457 72.69893 -13.81372 -1.05398 89.37877 22.43197 -53.18001 39.69909 -80.189 -12.06482 -0.0229 94.42235 -19.18473 14.97857 -61.5922 -6.23853 -4.12413 -2.79754 85.60905 -0.00281 20.16337 -61.03719 -6.69906 5.08359 3.34336
-2.0249 -0.11998 -1.12879 147.38645 -69.12783 20.80881 -29.49493 11.18477 -0.37343 -51.80941 -7.84275 -0.83079 98.01199 -2.92596 37.64353 19.70173 72.73464 -13.88382 -1.19868 89.72828 22.37095 -53.48337 39.49024 -79.99108 -12.05763 -0.09064 94.31405 -19.06404 15.1599 -61.54522 -6.2509 -4.14542 -2.81424 85.5942 0.12926 20.36045 -61.11876 -6.66427 5.05823 3.32817
-2.02587 -0.11996 -1.12844 147.34995 -69.15626 20.68818 -29.53453 11.21016 -0.27176 -51.63079 -7.87651 -0.83079 97.80381 -2.61901 36.90952 19.90706 72.78734 -13.95162 -1.39219 90.11403 22.33093 -53.86696 39.2458 -79.78136 -12.07275 -0.11506 94.193 -18.93997 15.35729 -61.47696 -6.26459 -4.16615 -2.83149 85.55931 0.28331 20.61533 -61.18368 -6.62456 5.02824 3.31011
-2.02683 -0.11998 -1.12809 147.30417 -69.18635 20.55512 -29.58575 11.2285 -0.19107 -51.43611 -7.93805 -0.83079 97.55089 -2.30177 36.22909 20.11314 72.92457 -14.01828 -1.57997 90.48187 22.29221 -54.18229 39.02288 -79.5844 -12.08218 -0.11791 94.07886 -18.81817 15.53853 -61.41905 -6.278 -4.18762 -2.84844 85.53808 0.42343 20.82851 -61.25823 -6.58844 5.0015 3.29405
